<svg xmlns="http://www.w3.org/2000/svg" viewBox="0 0 13.45 14.45"><defs><style>.cls-1{fill:#1d1d1b;}</style></defs><g id="Capa_2" data-name="Capa 2"><g id="Capa_1-2" data-name="Capa 1"><path class="cls-1" d="M1.39,9.63a8.33,8.33,0,0,1,1-4.05A10.16,10.16,0,0,1,5.07,2.37,10.57,10.57,0,0,1,13,.08V.15a20.14,20.14,0,0,0-4,.91A14.48,14.48,0,0,0,5.4,2.81,8.89,8.89,0,0,0,1.46,9.63Z"/><path class="cls-1" d="M12.92.11a10.72,10.72,0,0,1-2.44,7.27A8.46,8.46,0,0,1,7.37,9.83a7.23,7.23,0,0,1-3.88.57v-.06A11.4,11.4,0,0,0,7.08,9.22a11.06,11.06,0,0,0,3-2.2A10.85,10.85,0,0,0,12.85.11Z"/><path class="cls-1" d="M3.59,10.13a1.59,1.59,0,0,1,.8-1,4.8,4.8,0,0,1,1.23-.54,13.09,13.09,0,0,1,2.63-.41,13.81,13.81,0,0,1,2.65,0,11.35,11.35,0,0,1,2.55.7V9c-.89,0-1.75-.05-2.61-.08s-1.71-.17-2.57-.19a12.88,12.88,0,0,0-2.56.19,4.56,4.56,0,0,0-1.2.39,1.43,1.43,0,0,0-.84.88Z"/><path class="cls-1" d="M13.35,8.9a4.49,4.49,0,0,1-1,2.18,6,6,0,0,1-1.92,1.5,5.87,5.87,0,0,1-2.35.66,5.36,5.36,0,0,1-2.38-.43v-.07c.8,0,1.56-.07,2.31-.18a9.77,9.77,0,0,0,2.19-.49,4.85,4.85,0,0,0,3-3.18Z"/><path class="cls-1" d="M.1,8.54a4.84,4.84,0,0,0,2.36,4,11.39,11.39,0,0,0,2.14,1c.74.31,1.51.54,2.32.79v.07a6.21,6.21,0,0,1-2.53-.21A6.68,6.68,0,0,1,2.13,13,6.24,6.24,0,0,1,.48,11,4.31,4.31,0,0,1,0,8.54Z"/></g></g></svg>